# xmcd
#
# Track frame offsets: 
#        150
#        14380
#        26441
#        43288
#        65553
#        78877
#        92702
#        105100
#        114581
#        128813
#
# Disc length: 2059 seconds
#
# Revision: 0
# Processed by: cddbd v1.4PL0 Copyright (c) Steve Scherf et al.
# Submitted via: ExactAudioCopy v0.90b4
#
DISCID=7508090a
DTITLE=Dread Clampitt - Dread Clampitt
DYEAR=2003
DGENRE=Bluegrass
TTITLE0=Granny Brown
TTITLE1=Introduce Yourself
TTITLE2=Dread Clampitt
TTITLE3=Stars
TTITLE4=What a State I'm In
TTITLE5=Crooked Island Sweetie
TTITLE6=You Been Around
TTITLE7=Ridin' High
TTITLE8=Walkabout
TTITLE9=Ain't Got Nothing but Love
EXTD=
EXTT0=
EXTT1=
EXTT2=
EXTT3=
EXTT4=
EXTT5=
EXTT6=
EXTT7=
EXTT8=
EXTT9=
PLAYORDER=
